<svg width="17" height="21" viewBox="0 0 17 21" fill="none" xmlns="http://www.w3.org/2000/svg">
<path d="M0 1.27409V19.4866C0.000107595 19.5262 0.0105 19.5648 0.029874 19.5976C0.049248 19.6304 0.0767412 19.6561 0.108906 19.6713C0.141071 19.6865 0.176476 19.6905 0.21068 19.683C0.244885 19.6755 0.276368 19.6567 0.30118 19.6289L8.66351 10.3808L0.30118 1.13182C0.276368 1.10408 0.244885 1.08526 0.21068 1.07773C0.176476 1.07019 0.141071 1.07428 0.108906 1.08948C0.0767412 1.10467 0.049248 1.13029 0.029874 1.16314C0.0105 1.19598 0.000107595 1.23458 0 1.27409ZM12.1698 6.58076L1.68448 0.0297973L1.67794 0.0256265C1.49732 -0.0855952 1.32568 0.191532 1.47361 0.352804L9.69292 9.26537L12.1698 6.58076ZM1.47443 20.4089C1.32568 20.5701 1.49732 20.8473 1.67876 20.736L1.6853 20.7319L12.1698 14.1809L9.69292 11.4954L1.47443 20.4089ZM16.4026 9.22227L13.4746 7.3936L10.7215 10.3808L13.4746 13.3667L16.4026 11.5394C17.1991 11.0403 17.1991 9.72138 16.4026 9.22227Z" fill="black"/>
</svg>
