<svg width="21" height="23" viewBox="0 0 21 23" fill="none" xmlns="http://www.w3.org/2000/svg">
<path d="M10.6635 6.59324C9.64524 6.59324 8.06897 5.56265 6.409 5.5999C4.21895 5.62474 2.21025 6.72982 1.08035 8.48056C-1.19339 11.9945 0.494478 17.1846 2.71242 20.0405C3.80047 21.4311 5.08381 22.9956 6.78563 22.9459C8.4177 22.8839 9.03147 22.0023 11.0123 22.0023C12.9791 22.0023 13.5371 22.9459 15.2668 22.9087C17.0244 22.8839 18.1404 21.4932 19.2145 20.0901C20.456 18.476 20.9721 16.9115 21 16.8245C20.9582 16.8121 17.5824 15.6574 17.5406 12.1807C17.5127 9.27523 20.2049 7.88457 20.3304 7.82248C18.796 5.8234 16.4386 5.5999 15.6156 5.55024C13.4674 5.40124 11.6679 6.59324 10.6635 6.59324ZM14.2904 3.66291C15.1971 2.69441 15.7969 1.341 15.6295 0C14.3322 0.0496666 12.7699 0.769832 11.8353 1.73833C10.9983 2.59508 10.273 3.97332 10.4683 5.28949C11.905 5.38882 13.3837 4.63141 14.2904 3.66291Z" fill="black"/>
</svg>
